# AST/ASF file generated using VICON BodyLanguage
# -----------------------------------------------
:version 1.10
:name VICON
:units
  mass 1.0
  length 0.45
  angle deg
:documentation
   .ast/.asf automatically generated from VICON data using
   VICON BodyBuilder and BodyLanguage model FoxedUp or BRILLIANT.MOD
:root
   order TX TY TZ RX RY RZ
   axis XYZ
   position 0 0 0  
   orientation 0 0 0 
:bonedata
  begin
     id 1 
     name lhipjoint
     direction 0.692814 -0.645514 0.321437 
     length 2.38754 
     axis 0 0 0  XYZ
  end
  begin
     id 2 
     name lfemur
     direction 0.34202 -0.939693 0  
     length 6.41921  
     axis 0 0 20  XYZ
    dof rx ry rz
    limits (-160.0 20.0)
           (-70.0 70.0)
           (-60.0 70.0)
  end
  begin
     id 3 
     name ltibia
     direction 0.34202 -0.939693 0   
     length 6.98247   
     axis 0 0 20   XYZ
    dof rx
    limits (-10.0 170.0)
  end
  begin
     id 4 
     name lfoot
     direction 0.0947186 -0.260237 0.960888   
     length 1.83034   
     axis -90 7.62852e-016 20   XYZ
    dof rx rz
    limits (-45.0 90.0)
           (-70.0 20.0)
  end
  begin
     id 5 
     name ltoes
     direction 1.53538e-011 -4.21952e-011 1   
     length 0.920499   
     axis -90 7.62852e-016 20   XYZ
    dof rx
    limits (-90.0 20.0)
  end
  begin
     id 6 
     name rhipjoint
     direction -0.631686 -0.693949 0.345555   
     length 2.2209  
     axis 0 0 0  XYZ 
  end
  begin
     id 7 
     name rfemur
     direction -0.34202 -0.939693 0   
     length 6.49542   
     axis 0 0 -20   XYZ
    dof rx ry rz
    limits (-160.0 20.0)
           (-70.0 70.0)
           (-70.0 60.0)
  end
  begin
     id 8 
     name rtibia
     direction -0.34202 -0.939693 0   
     length 7.21712   
     axis 0 0 -20   XYZ
    dof rx
    limits (-10.0 170.0)
 end
 begin
     id 9 
     name rfoot
     direction -0.0825378 -0.226771 0.970444   
     length 1.89724  
     axis -90 -7.62852e-016 -20   XYZ
    dof rx rz
    limits (-45.0 90.0)
           (-20.0 70.0)
  end
  begin
     id 10 
     name rtoes
     direction -1.53515e-011 -4.22016e-011 1   
     length 0.955868   
     axis -90 -7.62852e-016 -20   XYZ
    dof rx
    limits (-90.0 20.0)
  end
  begin
     id 11 
     name lowerback
     direction -0.0104711 0.984802 -0.173368   
     length 1.84931   
     axis 0 0 0   XYZ
    dof rx ry rz
    limits (-20.0 45.0)
           (-30.0 30.0)
           (-30.0 30.0)
  end
  begin
     id 12 
     name upperback
     direction -0.00286433 0.999996 -0.000382853   
     length 1.85768   
     axis 0 0 0   XYZ
    dof rx ry rz
    limits (-20.0 45.0)
           (-30.0 30.0)
           (-30.0 30.0)
  end
  begin
     id 13 
     name thorax
     direction 0.00167534 0.996793 0.0800069   
     length 1.92   
     axis 0 0 0   XYZ
    dof rx ry rz
    limits (-20.0 45.0)
           (-30.0 30.0)
           (-30.0 30.0)
  end
  begin
     id 14 
     name lowerneck
     direction -0.0672491 0.995415 0.068018   
     length 1.58923   
     axis 0 0 0   XYZ
    dof rx ry rz
    limits (-20.0 45.0)
           (-30.0 30.0)
           (-30.0 30.0)
  end
  begin
     id 15 
     name upperneck
     direction 0.0958019 0.982476 -0.159884   
     length 1.60189   
     axis 0 0 0   XYZ
    dof rx ry rz
    limits (-20.0 45.0)
           (-30.0 30.0)
           (-30.0 30.0)
  end
  begin
     id 16
     name head
     direction 0.032989 0.997338 -0.0650226  
     length 1.61681  
     axis 0 0 0   XYZ
    dof rx ry rz
    limits (-20.0 45.0)
           (-30.0 30.0)
           (-30.0 30.0)
  end
  begin
     id 17 
     name lclavicle
     direction 0.954279 0.298875 -0.00496069  
     length 2.99449  
     axis 0 0 0   XYZ
    dof ry rz
    limits (-20.0 10.0)
           (0.0 20.0)
  end
  begin
     id 18 
     name lhumerus
     direction 1 -4.48985e-011 -4.2057e-027   
     length 4.79185   
     axis 180 -30 -90   XYZ
    dof rx ry rz
    limits (-60.0 90.0)
           (-90.0 90.0)
           (-90.0 90.0)
  end
  begin
     id 19
     name lradius
     direction 1 -4.48945e-011 1.15441e-028   
     length 2.65553   
     axis 180 -30 -90   XYZ
    dof rx
    limits (-10.0 170.0)
  end
  begin
     id 20
     name lwrist
     direction 1 -4.4899e-011 4.8894e-028   
     length 1.32777   
     axis -2.56392e-016 90 90   XYZ
    dof ry
    limits (-180.0 0.0)
 end
  begin
     id 21 
     name lhand
     direction 1 -4.48908e-011 9.7788e-028   
     length 0.743904   
     axis -6.23971e-016 90 90   XYZ
    dof rx rz
    limits (-90.0 90.0)
           (-45.0 45.0)
  end
  begin
     id 22 
     name lfingers
     direction 1 -4.49068e-011 1.95576e-027   
     length 0.599754   
     axis -1.24794e-015 90 90   XYZ
    dof rx
    limits (0.0 90.0)
  end
  begin
     id 23
     name lthumb
     direction 0.707107 -6.34883e-011 0.707107   
     length 0.861131   
     axis -90 45 2.85299e-015   XYZ
    dof rx rz
    limits (-45.0 45.0)
           (-45.0 45.0)
  end
  begin
     id 24 
     name rclavicle
     direction -0.957921 0.286916 0.00811568   
     length 3.06817  
     axis 0 0 0   XYZ 
    dof ry rz
    limits (-10.0 20.0)
           (-20.0 0.0)
  end
  begin
     id 25 
     name rhumerus
     direction -1 -4.48971e-011 -3.07942e-027  
     length 4.77254   
     axis 180 30 90   XYZ
    dof rx ry rz
    limits (-90.0 60.0)
           (-90.0 90.0)
           (-90.0 90.0)
  end
  begin
     id 26 
     name rradius
     direction -1 -4.48957e-011 -9.6815e-028   
     length 2.75995   
     axis 180 30 90   XYZ
    dof rx
    limits (-10.0 170.0)
  end
  begin
     id 27 
     name rwrist
     direction -1 -4.48979e-011 4.8894e-028   
     length 1.37997   
     axis -2.56392e-016 -90 -90   XYZ
    dof ry
    limits (-180.0 0.0)
  end
  begin
     id 28
     name rhand
     direction -1 -4.48906e-011 9.7788e-028   
     length 0.701619   
     axis -6.23971e-016 -90 -90   XYZ
    dof rx rz
    limits (-90.0 90.0)
           (-45.0 45.0)
  end
  begin
     id 29
     name rfingers
     direction -1 -4.49018e-011 1.95576e-027   
     length 0.565663   
     axis -1.24794e-015 -90 -90   XYZ
    dof rx
    limits (0.0 90.0)
  end
  begin
     id 30
     name rthumb
     direction -0.707107 -6.34881e-011 0.707107   
     length 0.812183   
     axis -90 -45 -2.85299e-015   XYZ
    dof rx rz
    limits (-45.0 45.0)
           (-45.0 45.0)
  end
:hierarchy
  begin
    root lhipjoint rhipjoint lowerback
    lhipjoint lfemur
    lfemur ltibia
    ltibia lfoot
    lfoot ltoes
    rhipjoint rfemur
    rfemur rtibia
    rtibia rfoot
    rfoot rtoes
    lowerback upperback
    upperback thorax
    thorax lowerneck lclavicle rclavicle
    lowerneck upperneck
    upperneck head
    lclavicle lhumerus
    lhumerus lradius
    lradius lwrist
    lwrist lhand lthumb
    lhand lfingers
    rclavicle rhumerus
    rhumerus rradius
    rradius rwrist
    rwrist rhand rthumb
    rhand rfingers
  end

#!OML:ASF F:\VICON\USERDATA\INSTALL\rory3\rory3.ASF
:FULLY-SPECIFIED
:DEGREES
571
root 0.112591 16.1789 0.242158 1.1365 4.7327 -1.93638
lowerback 8.26092 0.305965 -0.00745295
upperback -6.69244 0.519712 0.950811
thorax -11.8941 0.301417 0.939848
lowerneck -13.0073 -6.99667 -11.1476
upperneck 26.6336 -9.3008 7.10095
head 11.7311 -4.51285 3.16988
rclavicle 3.03923e-015 -1.45734e-014
rhumerus -52.2479 7.03283 -85.8529
rradius 59.5071
rwrist -3.13614
rhand -16.4845 19.5954
rfingers 7.12502
rthumb 9.73275 -10.1597
lclavicle 3.03923e-015 -1.45734e-014
lhumerus -51.4481 -9.13054 73.2044
lradius 62.2231
lwrist 13.915
lhand -7.92127 15.725
lfingers 7.12502
lthumb 17.9846 44.9135
rfemur 4.38159 12.3404 19.8331
rtibia 5.53379
rfoot -9.31985 -19.4495
rtoes 0.365923
lfemur 1.25197 -12.251 -14.5441
ltibia 7.136
lfoot -7.04146 7.96153
ltoes -10.4551
572
root 0.0962537 16.181 0.224245 1.10938 4.8511 -2.06905
lowerback 8.46891 0.342889 0.0726104
upperback -6.64759 0.580191 0.937545
thorax -11.9703 0.322868 0.868609
lowerneck -12.8082 -7.11609 -11.5082
upperneck 26.3612 -9.3093 6.84672
head 11.5964 -4.58609 3.13433
rclavicle -2.40359e-014 -3.37561e-014
rhumerus -51.1482 7.35925 -84.9443
rradius 61.4517
rwrist -3.5489
rhand -16.6159 19.3885
rfingers 7.12502
rthumb 9.60591 -10.3725
lclavicle -2.40359e-014 -3.37561e-014
lhumerus -50.7642 -9.85545 71.7936
lradius 62.8288
lwrist 14.9039
lhand -8.18636 15.7183
lfingers 7.12502
lthumb 17.7295 44.9301
rfemur 4.6646 12.3409 20.0721
rtibia 4.97846
rfoot -9.11454 -19.6006
rtoes 0.704493
lfemur 0.826736 -12.3115 -14.3165
ltibia 7.75757
lfoot -7.24771 7.91648
ltoes -10.6625
573
root 0.0799118 16.1824 0.204173 1.06456 5.15436 -2.19663
lowerback 8.71208 0.355191 0.110019
upperback -6.61556 0.603426 0.935622
thorax -12.0828 0.330786 0.840339
lowerneck -12.5426 -7.22761 -11.9479
upperneck 26.1194 -9.30355 6.60424
head 11.4654 -4.65948 3.12135
rclavicle -6.26172e-015 -1.16538e-014
rhumerus -50.0345 7.79128 -83.779
rradius 63.7763
rwrist -4.2408
rhand -16.249 19.119
rfingers 7.12502
rthumb 9.95992 -10.6254
lclavicle -6.26172e-015 -1.16538e-014
lhumerus -49.8866 -10.741 70.3733
lradius 63.6489
lwrist 16.2058
lhand -8.21797 16.0569
lfingers 7.12502
lthumb 17.6991 45.2714
rfemur 5.02342 12.1647 20.3229
rtibia 4.33918
rfoot -8.80158 -19.7756
rtoes 0.841911
lfemur 0.366687 -12.5566 -14.0755
ltibia 8.38346
lfoot -7.43164 7.84642
ltoes -10.8596
574
root 0.0638235 16.1838 0.179448 1.07235 5.43893 -2.36284
lowerback 8.89751 0.402136 0.198702
upperback -6.56457 0.677519 0.907023
thorax -12.1377 0.357011 0.744354
lowerneck -12.3225 -7.35183 -12.3149
upperneck 25.909 -9.31169 6.28459
head 11.3502 -4.73837 3.06502
rclavicle 1.72321e-014 2.6339e-015
rhumerus -48.6549 8.29438 -82.4157
rradius 66.2202
rwrist -4.94605
rhand -15.929 18.9578
rfingers 7.12502
rthumb 10.2686 -10.7715
lclavicle 1.72321e-014 2.6339e-015
lhumerus -48.7384 -11.9662 68.8997
lradius 64.8162
lwrist 17.9066
lhand -8.09652 16.6029
lfingers 7.12502
lthumb 17.816 45.8067
rfemur 5.26306 12.0098 20.5756
rtibia 3.71995
rfoot -8.41353 -19.9381
rtoes 0.84366
lfemur -0.152742 -12.7755 -13.7743
ltibia 8.95971
lfoot -7.54648 7.79023
ltoes -10.7272
575
root 0.0469949 16.1875 0.148473 1.14244 5.51045 -2.57934
lowerback 9.06487 0.525956 0.315521
upperback -6.50867 0.856941 0.853646
thorax -12.1759 0.42957 0.5848
lowerneck -12.1888 -7.47894 -12.5937
upperneck 25.7394 -9.32999 5.9321
head 11.2627 -4.8142 2.97892
rclavicle 1.6524e-015 -4.37326e-015
rhumerus -47.0141 8.85048 -80.934
rradius 68.7875
rwrist -5.14739
rhand -15.8702 18.7102
rfingers 7.12502
rthumb 10.3253 -11.0164
lclavicle 1.6524e-015 -4.37326e-015
lhumerus -47.3906 -13.424 67.2832
lradius 66.3876
lwrist 19.7984
lhand -8.27903 17.1216
lfingers 7.12502
lthumb 17.6403 46.3413
rfemur 5.33026 12.0731 20.8277
rtibia 3.13957
rfoot -7.90268 -20.0734
rtoes 0.514827
lfemur -0.705744 -12.773 -13.4231
ltibia 9.51584
lfoot -7.59715 7.69079
ltoes -10.7066
576
root 0.0310059 16.1885 0.118688 1.08512 5.69508 -2.76788
lowerback 9.22918 0.61212 0.357267
upperback -6.34155 0.974517 0.813755
thorax -12.0848 0.479626 0.493713
lowerneck -12.1263 -7.58614 -12.8046
upperneck 25.5828 -9.28921 5.44199
head 11.1777 -4.86978 2.83884
rclavicle 5.49143e-015 1.38155e-014
rhumerus -44.9562 9.44259 -79.1833
rradius 71.3681
rwrist -4.78009
rhand -15.8304 18.8247
rfingers 7.12502
rthumb 10.3637 -10.8999
lclavicle 5.49143e-015 1.38155e-014
lhumerus -45.6812 -14.7208 65.506
lradius 68.1776
lwrist 21.4186
lhand -8.35765 17.275
lfingers 7.12502
lthumb 17.5647 46.5016
rfemur 5.40506 12.0232 21.0665
rtibia 2.87925
rfoot -7.73961 -20.1582
rtoes 0.696451
lfemur -1.08133 -12.8982 -13.131
ltibia 9.99951
lfoot -7.6544 7.5344
ltoes -10.5787
577
root 0.0140514 16.1876 0.092397 0.981605 6.34923 -2.93982
lowerback 9.25058 0.541877 0.385491
upperback -6.06019 0.875245 0.76827
thorax -11.7745 0.427657 0.447753
lowerneck -12.1137 -7.66494 -12.947
upperneck 25.3644 -9.18266 4.83608
head 11.0637 -4.89913 2.65483
rclavicle 1.81391e-015 -7.95139e-015
rhumerus -42.4162 10.0061 -77.1504
rradius 74.0471
rwrist -4.13638
rhand -15.6153 19.0091
rfingers 7.12502
rthumb 10.5712 -10.7051
lclavicle 1.81391e-015 -7.95139e-015
lhumerus -43.479 -15.8199 63.5762
lradius 70.1714
lwrist 22.7135
lhand -8.18862 17.3911
lfingers 7.12502
lthumb 17.7273 46.603
rfemur 5.32446 11.503 21.3247
rtibia 3.1749
rfoot -8.02146 -20.2331
rtoes 1.26029
lfemur -1.47943 -13.4941 -12.8005
ltibia 10.365
lfoot -7.63092 7.45811
ltoes -10.7063
